<svg xmlns="http://www.w3.org/2000/svg" width="15" height="11.786" viewBox="0 0 15 11.786">
  <g id="Mail" transform="translate(-7 -8.607)" opacity="0.7">
    <path id="Vector" d="M13.125,0H1.875A1.877,1.877,0,0,0,0,1.875V9.911a1.877,1.877,0,0,0,1.875,1.875h11.25A1.877,1.877,0,0,0,15,9.911V1.875A1.877,1.877,0,0,0,13.125,0ZM12.65,3.1,7.829,6.851a.536.536,0,0,1-.658,0L2.35,3.1a.536.536,0,1,1,.658-.846L7.5,5.75l4.493-3.494a.536.536,0,0,1,.658.846Z" transform="translate(7 8.607)" fill="#f5832b"/>
  </g>
</svg>
