<svg xmlns="http://www.w3.org/2000/svg" width="30" height="30" viewBox="0 0 36.306 27.229">
  <g id="Message" opacity="0.68">
    <path id="Vector" d="M31.768,0H4.538A4.655,4.655,0,0,0,1.331,1.27,4.239,4.239,0,0,0,0,4.332V22.9a4.239,4.239,0,0,0,1.331,3.062,4.655,4.655,0,0,0,3.208,1.27H31.768a4.655,4.655,0,0,0,3.208-1.27A4.239,4.239,0,0,0,36.306,22.9V4.332A4.239,4.239,0,0,0,34.975,1.27,4.655,4.655,0,0,0,31.768,0ZM30.619,7.166l-11.67,8.664a1.346,1.346,0,0,1-1.592,0L5.687,7.166A1.258,1.258,0,0,1,5.349,6.8a1.2,1.2,0,0,1-.165-.461,1.183,1.183,0,0,1,.034-.486,1.217,1.217,0,0,1,.228-.436A1.282,1.282,0,0,1,5.832,5.1a1.34,1.34,0,0,1,.485-.151,1.356,1.356,0,0,1,.509.039,1.32,1.32,0,0,1,.453.224l10.874,8.073L29.027,5.212a1.343,1.343,0,0,1,.952-.239,1.311,1.311,0,0,1,.854.467,1.2,1.2,0,0,1,.264.9A1.225,1.225,0,0,1,30.619,7.166Z" fill="#fff"/>
  </g>
</svg>
