<svg xmlns="http://www.w3.org/2000/svg" width="13.076" height="15.243" viewBox="0 0 13.076 15.243">
  <g id="Notification" transform="translate(-7.962 -6.879)" opacity="0.7">
    <g id="Group_1896" data-name="Group 1896">
      <path id="Vector" d="M12.8,10.524l-.166-.2c-.749-.905-1.2-1.452-1.2-4.015a5.2,5.2,0,0,0-.943-3.232,4.439,4.439,0,0,0-1.907-1.4.1.1,0,0,1-.028-.023A2.174,2.174,0,0,0,6.538,0,2.174,2.174,0,0,0,4.521,1.652a.106.106,0,0,1-.028.022c-1.918.79-2.851,2.3-2.851,4.632,0,2.564-.452,3.11-1.2,4.015l-.166.2A1.2,1.2,0,0,0,.117,11.8a1.272,1.272,0,0,0,1.168.717h10.51a1.269,1.269,0,0,0,1.163-.715,1.2,1.2,0,0,0-.157-1.281ZM6.538,15.243a2.724,2.724,0,0,0,2.4-1.433.136.136,0,0,0-.12-.2H4.263a.136.136,0,0,0-.121.2,2.724,2.724,0,0,0,2.4,1.433Z" transform="translate(7.962 6.879)" fill="#f5832b"/>
    </g>
    <g id="Group">
      <g id="Group-2" data-name="Group">
        <path id="Vector-2" data-name="Vector" d="M5,2.5A2.5,2.5,0,1,1,2.5,0,2.5,2.5,0,0,1,5,2.5Z" transform="translate(16.002 7)" fill="red"/>
      </g>
    </g>
  </g>
</svg>
