<svg xmlns="http://www.w3.org/2000/svg" width="30" height="30" viewBox="0 0 36.306 33.281">
  <g id="Orders" opacity="0.68">
    <path id="Vector" d="M5.4,2.773A2.738,2.738,0,0,1,2.7,5.547,2.738,2.738,0,0,1,0,2.773,2.738,2.738,0,0,1,2.7,0,2.738,2.738,0,0,1,5.4,2.773Z" transform="translate(9.451 27.734)" fill="#fff"/>
    <path id="Vector-2" data-name="Vector" d="M5.4,2.773A2.738,2.738,0,0,1,2.7,5.547,2.738,2.738,0,0,1,0,2.773,2.738,2.738,0,0,1,2.7,0,2.738,2.738,0,0,1,5.4,2.773Z" transform="translate(28.352 27.734)" fill="#fff"/>
    <path id="Vector-3" data-name="Vector" d="M35.845,4.921a2.027,2.027,0,0,0-.7-.562,1.974,1.974,0,0,0-.867-.2H8.6L8.08,1.146A1.4,1.4,0,0,0,7.618.324,1.329,1.329,0,0,0,6.75,0H1.35A1.332,1.332,0,0,0,.4.406a1.413,1.413,0,0,0,0,1.961,1.332,1.332,0,0,0,.955.406H5.618L9.471,25.2a1.4,1.4,0,0,0,.462.821,1.329,1.329,0,0,0,.868.324H32.4a1.332,1.332,0,0,0,.955-.406,1.413,1.413,0,0,0,0-1.961,1.332,1.332,0,0,0-.955-.406H11.933L11.457,20.8H31.849a2,2,0,0,0,1.284-.472,2.1,2.1,0,0,0,.7-1.2l2.43-12.48a2.135,2.135,0,0,0-.022-.912,2.1,2.1,0,0,0-.4-.815Z" transform="translate(0 0)" fill="#fff"/>
  </g>
</svg>
