<svg xmlns="http://www.w3.org/2000/svg" width="30" height="30" viewBox="0 0 36.306 36.306">
  <g id="Setting" opacity="0.68">
    <g id="Group_585" data-name="Group 585" transform="translate(0)">
      <path id="Vector" d="M18.153,11.839a6.608,6.608,0,0,0-3.6,1.064,6.353,6.353,0,0,0-2.388,2.834,6.161,6.161,0,0,0-.369,3.648,6.265,6.265,0,0,0,1.774,3.233,6.54,6.54,0,0,0,3.32,1.728,6.646,6.646,0,0,0,3.746-.359,6.45,6.45,0,0,0,2.91-2.326,6.174,6.174,0,0,0-.812-7.967,6.592,6.592,0,0,0-4.579-1.855Zm14,6.314a12.729,12.729,0,0,1-.133,1.763l3.946,3.009a.91.91,0,0,1,.327.545.894.894,0,0,1-.114.621l-3.733,6.276a.939.939,0,0,1-.5.4.967.967,0,0,1-.646-.009l-4.64-1.815a14.4,14.4,0,0,1-3.146,1.789l-.694,4.8a.936.936,0,0,1-.323.552.982.982,0,0,1-.61.226H14.42a.988.988,0,0,1-.6-.217.943.943,0,0,1-.332-.535l-.694-4.8a13.811,13.811,0,0,1-3.146-1.791l-4.64,1.815a.967.967,0,0,1-.646.009.939.939,0,0,1-.5-.4L.128,24.117A.894.894,0,0,1,.015,23.5a.91.91,0,0,1,.327-.545l3.946-3.009a13.425,13.425,0,0,1-.133-1.789,12.729,12.729,0,0,1,.133-1.763L.341,13.381a.91.91,0,0,1-.327-.545.894.894,0,0,1,.114-.621L3.861,5.938a.939.939,0,0,1,.5-.4.967.967,0,0,1,.646.009l4.64,1.815a14.4,14.4,0,0,1,3.146-1.789l.694-4.8A.936.936,0,0,1,13.81.226.982.982,0,0,1,14.42,0h7.466a.988.988,0,0,1,.6.217.943.943,0,0,1,.332.535l.694,4.8a13.812,13.812,0,0,1,3.15,1.791L31.3,5.525a.967.967,0,0,1,.646-.009.939.939,0,0,1,.5.4l3.733,6.276a.894.894,0,0,1,.114.621.91.91,0,0,1-.327.545l-3.946,3.009a13.425,13.425,0,0,1,.133,1.788Z" transform="translate(0)" fill="#fff"/>
    </g>
  </g>
</svg>
