<svg xmlns="http://www.w3.org/2000/svg" width="29.209" height="28.526" viewBox="0 0 29.209 28.526">
  <g id="Total_Delivered" data-name="Total Delivered" transform="translate(-5286.476 805.296)">
    <path id="Path_3" data-name="Path 3" d="M37.1,6.413a2.551,2.551,0,0,0-1.762,4.537,2.8,2.8,0,0,0,1.6.659,2.286,2.286,0,0,0,2.285-2.275l-.649.038a1.634,1.634,0,0,1-1.636,1.59,1.562,1.562,0,0,1-.3-.029,1.567,1.567,0,0,0,.23-.551c.312-1.311,1.251-1.33,2.12-1.393.253-.019.594-.019.893-.019a.372.372,0,0,0,.09-.738l-.594-.1a2.661,2.661,0,0,0-.827-1.149A2.556,2.556,0,0,0,37.1,6.413Z" transform="translate(5262.795 -811.704)" fill="#eb61a5" fill-rule="evenodd"/>
    <path id="Path_4" data-name="Path 4" d="M12.311,40.621h3.88a1.94,1.94,0,1,1-3.88,0ZM30.7,38.682a1.937,1.937,0,1,1-1.6.836l1.014,1.289a.6.6,0,0,0,.791.21.61.61,0,0,0,.212-.788l-.773-1.515A1.954,1.954,0,0,1,30.7,38.682ZM17.256,21.528a1.488,1.488,0,0,0-1.461.947L13.941,28.91c-.289,1,.038,2.338,1.553,2.338h5.254l1.041,5.514c.183.971,2.033.987,1.959,0l-.467-6.233c-.075-1-.479-1.374-1.2-1.47L17.935,28.5l.368-3.09,1.648,1.249a1.382,1.382,0,0,0,.789.326l2.879.482a.673.673,0,0,1,.368.476l3.094,7.571c.7,1.717.154,2.885-2.084,2.885h-3.99a2,2,0,0,1-2.088-2.733l.822-1.846a1.166,1.166,0,0,0-1.031-1.718H12.835V26.64A.735.735,0,0,0,12.1,25.9H9.922v1.738A.358.358,0,0,1,9.564,28h-.82a.358.358,0,0,1-.358-.359V25.9H6.213a.734.734,0,0,0-.737.736V33.3a.735.735,0,0,0,.737.738H11.1A6.25,6.25,0,0,0,8.2,39.622c.088.892.605,1,.987,1h1.232a3.836,3.836,0,1,0,7.673,0h8.771A3.837,3.837,0,1,0,34.014,38.7l.235.036c.432.066.543-.462.329-.927A4.523,4.523,0,0,0,30.7,35.178a.3.3,0,0,1-.31-.3v-.306a1.559,1.559,0,0,0-.291-1.079L25.943,27.7c-.208-.362-.156-.564.21-.564h.7c.474,0,.815-.1.748-.648l-.208-1.378c-.052-.43-.235-.723-.853-.723h-1.1a2.289,2.289,0,0,0-1.958,1.235c-.075.1-.127.179-.18.251l-2.442-.7-2.234-3.06A1.7,1.7,0,0,0,17.256,21.528Z" transform="translate(5281 -821.228)" fill="#eb61a5" fill-rule="evenodd"/>
  </g>
</svg>
