<svg id="Total_Customer" data-name="Total Customer" xmlns="http://www.w3.org/2000/svg" width="30" height="30" viewBox="0 0 36.306 27.229">
  <g id="Group">
    <g id="Group-2" data-name="Group">
      <g id="Group-3" data-name="Group">
        <path id="Vector" d="M16.683,1.343A3.645,3.645,0,0,1,17.332.97a21.147,21.147,0,0,0-6.8-.97c-1.3,0-5.65.112-7.673,1.455C.305,3.171.038,8.542,0,9.624a1.319,1.319,0,0,0,.344.9,1.257,1.257,0,0,0,.878.373H12.713C12.9,8.243,13.591,3.394,16.683,1.343Z" transform="translate(0 14.435)" fill="#f79325"/>
        <path id="Vector-2" data-name="Vector" d="M12.751,6.229a6.3,6.3,0,0,1-6.375,6.229A6.3,6.3,0,0,1,0,6.229,6.3,6.3,0,0,1,6.375,0,6.3,6.3,0,0,1,12.751,6.229Z" transform="translate(4.2)" fill="#f79325"/>
        <path id="Vector-3" data-name="Vector" d="M21.073,9.437c-.038-1.343-.382-6.378-2.863-7.982C16.187.112,11.835,0,10.537,0S4.887.112,2.863,1.455C.305,3.171.038,8.542,0,9.624a1.319,1.319,0,0,0,.344.9,1.33,1.33,0,0,0,.878.373H19.814a1.257,1.257,0,0,0,1.26-1.231Z" transform="translate(15.232 16.338)" fill="#f79325"/>
        <path id="Vector-4" data-name="Vector" d="M12.751,6.229a6.3,6.3,0,0,1-6.375,6.229A6.3,6.3,0,0,1,0,6.229,6.3,6.3,0,0,1,6.375,0,6.3,6.3,0,0,1,12.751,6.229Z" transform="translate(19.394 1.94)" fill="#f79325"/>
      </g>
    </g>
  </g>
</svg>
