<svg xmlns="http://www.w3.org/2000/svg" width="21.153" height="28.229" viewBox="0 0 21.153 28.229">
  <g id="Total_Pending" data-name="Total Pending" transform="translate(-97.895 -45)">
    <path id="Path_1" data-name="Path 1" d="M97.9,45.669a.669.669,0,0,0,.669.669H101.6v3.623a3.581,3.581,0,0,0,1.191,2.665l5.669,5.076,5.425-5.073a3.589,3.589,0,0,0,1.134-2.613V46.338h3.358a.669.669,0,1,0,0-1.338H98.564A.669.669,0,0,0,97.9,45.669Z" transform="translate(0)" fill="#1abcb0"/>
    <path id="Path_2" data-name="Path 2" d="M98.564,283.567h19.815a.669.669,0,0,0,0-1.338h-3.037v-4.072a3.581,3.581,0,0,0-1.191-2.665l-5.669-5.076-5.425,5.073a3.589,3.589,0,0,0-1.134,2.613v4.127H98.564a.669.669,0,0,0,0,1.338Z" transform="translate(0 -210.338)" fill="#1abcb0"/>
  </g>
</svg>
