<svg id="Total_Orders" data-name="Total Orders" xmlns="http://www.w3.org/2000/svg" width="25.461" height="27.229" viewBox="0 0 25.461 27.229">
  <g id="Group_1501" data-name="Group 1501" transform="translate(0 0)">
    <g id="Group">
      <g id="Group-2" data-name="Group">
        <g id="Group-3" data-name="Group">
          <path id="Vector" d="M7.537.765A1.675,1.675,0,0,0,6.113,0H0V6.735H11.244Z" transform="translate(13.617)" fill="#a682ef"/>
          <path id="Vector-2" data-name="Vector" d="M11.289,0H5.118A1.675,1.675,0,0,0,3.694.767L0,6.735H11.289V0Z" transform="translate(0.613)" fill="#a682ef"/>
          <path id="Vector-3" data-name="Vector" d="M0,0V17.022A1.952,1.952,0,0,0,2.015,18.9H23.446a1.952,1.952,0,0,0,2.015-1.876V0ZM16.62,7.158l-4.432,4.127a.9.9,0,0,1-1.212,0L8.9,9.351a.76.76,0,0,1,0-1.128.9.9,0,0,1,1.212,0l1.471,1.371L15.409,6.03a.9.9,0,0,1,1.212,0A.759.759,0,0,1,16.62,7.158Z" transform="translate(0 8.331)" fill="#a682ef"/>
        </g>
      </g>
    </g>
  </g>
</svg>
